<svg width="95" height="95" viewBox="0 0 95 95" fill="none" xmlns="http://www.w3.org/2000/svg">
<g id="1161953_instagram_icon 1">
<g id="Group">
<path id="Vector" d="M46.9885 27.8264C35.3247 27.8264 25.6604 37.3241 25.6604 49.1545C25.6604 60.9849 35.158 70.4826 46.9885 70.4826C58.8189 70.4826 68.3165 60.8183 68.3165 49.1545C68.3165 37.4907 58.6522 27.8264 46.9885 27.8264ZM46.9885 62.8178C39.4903 62.8178 33.3252 56.6527 33.3252 49.1545C33.3252 41.6563 39.4903 35.4912 46.9885 35.4912C54.4866 35.4912 60.6518 41.6563 60.6518 49.1545C60.6518 56.6527 54.4866 62.8178 46.9885 62.8178Z" fill="white"/>
<path id="Vector_2" d="M69.1497 32.1587C71.8184 32.1587 73.9818 29.9952 73.9818 27.3265C73.9818 24.6578 71.8184 22.4944 69.1497 22.4944C66.4809 22.4944 64.3175 24.6578 64.3175 27.3265C64.3175 29.9952 66.4809 32.1587 69.1497 32.1587Z" fill="white"/>
<path id="Vector_3" d="M81.6466 14.8297C77.3143 10.3308 71.1492 7.99805 64.1509 7.99805H29.826C15.3296 7.99805 5.66528 17.6623 5.66528 32.1588V66.317C5.66528 73.4819 7.99804 79.6471 12.6636 84.146C17.1625 88.4782 23.161 90.6444 29.9926 90.6444H63.9843C71.1492 90.6444 77.1477 88.3116 81.4799 84.146C85.9788 79.8137 88.3116 73.6486 88.3116 66.4836V32.1588C88.3116 25.1605 85.9788 19.162 81.6466 14.8297ZM80.9801 66.4836C80.9801 71.649 79.1472 75.8147 76.1479 78.6473C73.1487 81.4799 68.983 82.9796 63.9843 82.9796H29.9926C24.9939 82.9796 20.8282 81.4799 17.829 78.6473C14.8297 75.6481 13.3301 71.4824 13.3301 66.317V32.1588C13.3301 27.16 14.8297 22.9944 17.829 19.9951C20.6616 17.1625 24.9939 15.6628 29.9926 15.6628H64.3175C69.3163 15.6628 73.4819 17.1625 76.4812 20.1617C79.3138 23.161 80.9801 27.3266 80.9801 32.1588V66.4836Z" fill="white"/>
</g>
</g>
</svg>
