<svg width="102" height="102" viewBox="0 0 102 102" fill="none" xmlns="http://www.w3.org/2000/svg">
<g id="211904_social_github_icon 1">
<g id="Group">
<path id="Vector" fill-rule="evenodd" clip-rule="evenodd" d="M50.8721 6.35913C26.2905 6.35913 6.35901 26.7875 6.35901 52.0049C6.35901 72.1749 19.1168 89.2647 36.8028 95.3058C39.0284 95.7231 39.8432 94.3122 39.8432 93.1C39.8432 92.0071 39.8034 89.1455 39.7836 85.3301C27.4034 88.0923 24.7803 79.2096 24.7803 79.2096C22.7533 73.9435 19.8322 72.5326 19.8322 72.5326C15.7982 69.6909 20.1302 69.7505 20.1302 69.7505C24.6014 70.0685 26.9463 74.4602 26.9463 74.4602C30.9207 81.4352 37.3592 79.4281 39.9028 78.2557C40.3002 75.3147 41.4528 73.2877 42.7246 72.155C32.8483 71.0025 22.4553 67.0877 22.4553 49.6004C22.4553 44.6126 24.1841 40.5388 27.0258 37.3593C26.5687 36.2067 25.0386 31.5567 27.463 25.2772C27.463 25.2772 31.1989 24.0451 39.7041 29.9471C43.2612 28.9336 47.0567 28.4368 50.8522 28.417C54.6279 28.4368 58.4433 28.9336 62.0004 29.9471C70.5055 24.0451 74.2216 25.2772 74.2216 25.2772C76.646 31.5567 75.1158 36.2067 74.6588 37.3593C77.5005 40.5587 79.2293 44.6324 79.2293 49.6004C79.2293 67.1274 68.8164 70.9826 58.9003 72.1153C60.4901 73.5262 61.9209 76.3083 61.9209 80.5608C61.9209 86.6615 61.8613 91.5898 61.8613 93.0802C61.8613 94.2923 62.6561 95.7231 64.9215 95.2661C82.6473 89.2449 95.3852 72.155 95.3852 52.0049C95.3852 26.7875 75.4536 6.35913 50.8721 6.35913Z" fill="white"/>
</g>
</g>
</svg>
