<svg width="25" height="25" viewBox="0 0 25 25" fill="none" xmlns="http://www.w3.org/2000/svg">
<path id="Vector" d="M22.5852 24.6088L14.6307 16.643C13.9205 17.2119 13.1037 17.6624 12.1804 17.9943C11.2571 18.3262 10.2746 18.4922 9.23295 18.4922C6.65246 18.4922 4.46875 17.5974 2.68182 15.808C0.893939 14.0175 0 11.8302 0 9.24609C0 6.66192 0.893939 4.47463 2.68182 2.68421C4.46875 0.894737 6.65246 0 9.23295 0C11.8134 0 13.9976 0.894737 15.7855 2.68421C17.5724 4.47463 18.4659 6.66192 18.4659 9.24609C18.4659 10.2892 18.3002 11.2731 17.9688 12.1977C17.6373 13.1223 17.1875 13.9403 16.6193 14.6515L24.6094 22.6529C24.8698 22.9137 25 23.2338 25 23.6131C25 23.9924 24.858 24.3243 24.5739 24.6088C24.3134 24.8696 23.982 25 23.5795 25C23.1771 25 22.8456 24.8696 22.5852 24.6088ZM9.23295 15.6472C11.0085 15.6472 12.518 15.0251 13.7614 13.7809C15.0038 12.5358 15.625 11.0242 15.625 9.24609C15.625 7.46799 15.0038 5.95638 13.7614 4.71124C12.518 3.46705 11.0085 2.84495 9.23295 2.84495C7.45739 2.84495 5.94792 3.46705 4.70455 4.71124C3.46212 5.95638 2.84091 7.46799 2.84091 9.24609C2.84091 11.0242 3.46212 12.5358 4.70455 13.7809C5.94792 15.0251 7.45739 15.6472 9.23295 15.6472Z" fill="white"/>
</svg>
